<svg width="304" height="79" viewBox="0 0 304 79" fill="none" xmlns="http://www.w3.org/2000/svg">
<g clip-path="url(#clip0_13_243)">
<g clip-path="url(#clip1_13_243)">
<g clip-path="url(#clip2_13_243)">
<g clip-path="url(#clip3_13_243)">
<g clip-path="url(#clip4_13_243)">
<g clip-path="url(#clip5_13_243)">
<g clip-path="url(#clip6_13_243)">
<path d="M92.4447 42.8585C94.4937 42.8585 96.1584 42.5694 97.439 41.9912C98.724 41.4174 99.6469 40.6693 100.208 39.7469C100.768 38.8245 101.049 37.8138 101.049 36.7148C101.049 35.9733 100.855 35.2517 100.466 34.55C100.077 33.8482 99.5056 33.2612 98.7505 32.789C97.9954 32.3167 97.0901 32.0519 96.0348 31.9945V31.882C97.1961 31.4627 98.0417 30.8249 98.5716 29.9687C99.1015 29.1125 99.3665 28.1989 99.3665 27.2279C99.3665 26.3761 99.1148 25.5949 98.6114 24.8843C98.1124 24.1737 97.333 23.6066 96.2732 23.1829C95.2179 22.7548 93.8931 22.5407 92.299 22.5407C91.0361 22.5407 89.8085 22.6047 88.6163 22.7327C87.4284 22.8651 86.0043 23.0483 84.344 23.2822L84.1784 24.5268L86.9471 25.0167V40.9055L84.2446 41.6602L84.0658 42.8585H92.4447ZM90.047 24.0435C90.5548 23.9685 90.9875 23.931 91.3452 23.931C93.1336 23.931 94.4098 24.3414 95.1737 25.1623C95.942 25.9789 96.3262 26.9807 96.3262 28.168C96.3262 29.0816 96.1496 29.8319 95.7963 30.4189C95.4475 31.0059 94.922 31.445 94.2199 31.7363H90.047V24.0435ZM90.047 33.0802H93.6569C94.5489 33.0802 95.315 33.2833 95.9553 33.6893C96.5912 34.091 97.0703 34.6095 97.3926 35.2451C97.715 35.8806 97.8762 36.5493 97.8762 37.251C97.8762 37.9616 97.7128 38.6259 97.386 39.2438C97.0548 39.8661 96.5669 40.3648 95.9222 40.74C95.273 41.1195 94.5025 41.3093 93.6105 41.3093H90.047V33.0802ZM104.811 24.6592V35.2782C104.811 38.35 105.557 40.4531 107.05 41.5874C108.542 42.7261 110.443 43.2954 112.753 43.2954C115.522 43.2954 117.559 42.5738 118.867 41.1306C120.169 39.6873 120.832 37.4894 120.854 34.5367L120.933 24.593L123.622 23.9773L123.795 22.7525H116.065L115.906 23.9773L118.867 24.6592L118.814 35.0663C118.805 37.1275 118.348 38.659 117.442 39.6608C116.537 40.6627 115.243 41.1637 113.561 41.1637C111.826 41.1637 110.455 40.6274 109.448 39.5549C108.436 38.4824 107.931 36.8362 107.931 34.6162V24.593L110.666 23.9773L110.812 22.7525H102.049L101.837 23.9773L104.811 24.6592ZM132.366 42.8585C135.019 42.8585 137.274 42.3752 139.128 41.4086C140.979 40.4465 142.372 39.1643 143.308 37.5622C144.24 35.9645 144.706 34.2123 144.706 32.3057C144.706 30.4961 144.343 28.8631 143.619 27.4066C142.899 25.9502 141.674 24.774 139.943 23.878C138.212 22.9776 135.914 22.5275 133.048 22.5275C130.866 22.5275 128.1 22.7901 124.748 23.3153L124.603 24.5467L127.385 25.0299V40.7731L124.603 41.6602L124.377 42.8585H132.366ZM130.471 24.2554C130.904 24.2112 131.562 24.1892 132.445 24.1892C134.366 24.1892 135.989 24.5864 137.313 25.3808C138.638 26.1708 139.634 27.2477 140.301 28.6115C140.963 29.9753 141.294 31.5024 141.294 33.1928C141.294 34.6802 140.979 36.0263 140.347 37.2312C139.716 38.4405 138.764 39.4004 137.492 40.111C136.221 40.8216 134.662 41.1769 132.816 41.1769H130.471V24.2554ZM155.714 43.3616C157.366 43.3616 158.814 43.2204 160.059 42.9379C161.304 42.6599 162.45 42.2075 163.497 41.5807V35.7615L165.497 35.0994L165.696 33.8879H156.701L156.509 35.2319L160.324 35.8409V40.9319C160.024 41.1085 159.629 41.2652 159.138 41.402C158.644 41.5432 158.112 41.6138 157.542 41.6138C155.895 41.6138 154.467 41.1879 153.257 40.3361C152.051 39.4843 151.13 38.3589 150.495 36.9598C149.859 35.5607 149.541 34.0402 149.541 32.3984C149.541 30.5049 149.828 28.9381 150.402 27.6979C150.98 26.4577 151.758 25.5463 152.733 24.9637C153.709 24.3856 154.807 24.0965 156.025 24.0965C157.231 24.0965 158.262 24.2818 159.119 24.6526C159.975 25.0233 160.642 25.4514 161.119 25.9369L161.702 29.022L163.106 29.2669L163.497 24.0634C162.706 23.5646 161.757 23.1785 160.649 22.9048C159.536 22.6312 158.317 22.4944 156.992 22.4944C155.116 22.4944 153.341 22.9401 151.667 23.8317C149.989 24.7276 148.636 26.012 147.607 27.6847C146.578 29.353 146.063 31.2972 146.063 33.5172C146.063 35.4018 146.423 37.0855 147.143 38.5685C147.867 40.047 148.951 41.2166 150.395 42.0773C151.839 42.9335 153.612 43.3616 155.714 43.3616ZM166.517 23.9773L169.458 24.6592V40.9055L166.756 41.6602L166.63 42.8585H183.043L183.527 37.8005L182.189 37.5887L180.599 41.3093H172.598V33.4377H177.029L177.579 36.2646L178.95 36.0528L179.5 29.7635L177.963 29.9952L177.287 31.9349H172.598V24.2355H180.215L180.877 27.7112L182.282 27.923L182.785 22.7525H166.696L166.517 23.9773ZM183.461 22.7525L183.593 27.9561L185.064 28.168L185.918 24.2355H190.687V40.9055L187.958 41.6602L187.845 42.8585H196.562L196.787 41.5675L193.794 41.018V24.2355H198.728L199.344 27.9694L200.881 28.2143L201.431 22.7525H183.461ZM205.776 23.9773L208.154 24.6592L214.91 43.2491L217.367 42.7923L224.243 24.593L226.375 23.9773L226.488 22.7525H219.129L219.016 23.9773L221.964 24.6592L216.784 38.8002L211.724 24.593L214.473 23.9773L214.638 22.7525H205.935L205.776 23.9773ZM227.687 23.9773L230.628 24.6592V40.9055L227.925 41.6602L227.799 42.8585H236.529L236.695 41.5675L233.767 41.018V24.593L236.496 23.9773L236.662 22.7525H227.859L227.687 23.9773ZM243.094 43.2491C244.334 43.2491 245.507 42.9931 246.611 42.4811C247.715 41.9691 248.604 41.2431 249.28 40.303C249.951 39.3673 250.287 38.2949 250.287 37.0855C250.287 36.2249 250.066 35.4768 249.624 34.8413C249.183 34.2057 248.644 33.6695 248.008 33.2325C247.372 32.7956 246.516 32.2924 245.438 31.7231C244.405 31.1626 243.588 30.6837 242.988 30.2865C242.391 29.8848 241.886 29.3927 241.471 28.8101C241.056 28.232 240.848 27.5545 240.848 26.7777C240.848 25.7626 241.122 24.9968 241.669 24.4805C242.221 23.9641 242.928 23.7059 243.789 23.7059C244.186 23.7059 244.579 23.7897 244.968 23.9574C245.357 24.1252 245.688 24.3304 245.962 24.5731C246.24 24.8115 246.432 25.0344 246.538 25.2418L246.942 28.3269L248.545 28.5188C248.576 28.0554 248.635 27.3073 248.724 26.2746C248.808 25.2418 248.867 24.4716 248.902 23.9641C247.609 22.8872 246.087 22.3487 244.339 22.3487C243.248 22.3487 242.224 22.5738 241.265 23.024C240.307 23.4786 239.532 24.1362 238.94 24.9968C238.344 25.8619 238.046 26.8814 238.046 28.0554C238.046 29.0661 238.291 29.9444 238.782 30.6903C239.276 31.4318 239.87 32.0431 240.563 32.5241C241.257 33.0008 242.171 33.5415 243.305 34.1461C244.22 34.6404 244.939 35.0619 245.465 35.4106C245.986 35.7549 246.425 36.1609 246.783 36.6287C247.136 37.0966 247.313 37.6262 247.313 38.2176C247.313 38.9723 247.123 39.6035 246.743 40.111C246.359 40.6186 245.873 40.9959 245.286 41.2431C244.699 41.4903 244.098 41.6138 243.484 41.6138C242.773 41.6138 242.118 41.4572 241.517 41.1438C240.921 40.8304 240.466 40.4487 240.153 39.9985L239.523 36.9598L237.867 36.7347L237.662 41.3689C238.21 41.9073 238.971 42.3553 239.947 42.7128C240.923 43.0703 241.972 43.2491 243.094 43.2491ZM251.353 23.9773L254.301 24.6592V40.9055L251.598 41.6602L251.466 42.8585H260.202L260.361 41.5675L257.434 41.018V24.593L260.169 23.9773L260.328 22.7525H251.532L251.353 23.9773ZM270.549 43.2954C272.704 43.2954 274.574 42.8209 276.159 41.872C277.744 40.9231 278.952 39.6542 279.782 38.0653C280.612 36.4765 281.027 34.7397 281.027 32.8552C281.027 30.9485 280.65 29.1897 279.895 27.5788C279.14 25.9678 278.053 24.6857 276.636 23.7324C275.218 22.779 273.567 22.3024 271.681 22.3024C269.566 22.3024 267.723 22.7459 266.151 23.6331C264.578 24.5202 263.369 25.7626 262.521 27.3603C261.673 28.9536 261.249 30.7852 261.249 32.8552C261.249 34.7927 261.638 36.5559 262.415 38.1448C263.192 39.7337 264.287 40.9893 265.7 41.9118C267.109 42.8342 268.725 43.2954 270.549 43.2954ZM270.906 23.8515C272.372 23.8515 273.596 24.326 274.576 25.2749C275.556 26.2238 276.278 27.4419 276.742 28.9293C277.205 30.4123 277.437 31.968 277.437 33.5966C277.437 35.9137 276.985 37.8248 276.079 39.3298C275.174 40.8304 273.6 41.5807 271.357 41.5807C269.882 41.5807 268.656 41.1261 267.681 40.217C266.705 39.3078 265.987 38.1183 265.528 36.6486C265.069 35.1833 264.839 33.6121 264.839 31.9349C264.839 26.546 266.861 23.8515 270.906 23.8515ZM282.451 23.9773L285.392 24.8048V40.9055L282.69 41.6602L282.564 42.8585H290.241L290.42 41.5675L287.465 41.018V27.3272L298.183 43.3417L300.66 42.8452V24.593L303.356 23.9773L303.568 22.7525H295.884L295.692 23.9773L298.686 24.6592V38.4295L288.287 22.7525H282.63L282.451 23.9773Z" fill="#31C48D"/>
</g>
</g>
<g clip-path="url(#clip7_13_243)">
<g clip-path="url(#clip8_13_243)">
<path d="M87.5803 56.4857L87.6433 55.9527L86.4376 55.677V53.0435H87.554L88.5733 54.863C88.8815 55.4144 89.2204 55.845 89.5899 56.1549C89.9612 56.4647 90.3841 56.6196 90.8587 56.6196C91.1267 56.6196 91.3824 56.5767 91.6258 56.4909L91.723 56.0551L91.5128 55.9921C91.2554 55.915 91.0347 55.8091 90.8508 55.6744C90.667 55.5396 90.4936 55.3742 90.3307 55.1781C90.1696 54.9821 89.9367 54.6723 89.6319 54.2487L88.4787 52.6523V52.647C88.8675 52.5087 89.1994 52.3206 89.4743 52.0825C89.751 51.8427 89.9612 51.5793 90.1048 51.2922C90.2466 51.0069 90.3176 50.7233 90.3176 50.4415C90.3176 49.7308 90.0365 49.2223 89.4743 48.916C88.9122 48.6079 88.1206 48.4539 87.0996 48.4539C86.6722 48.4539 86.2257 48.4793 85.7598 48.5301C85.2922 48.5826 84.7642 48.6552 84.1758 48.748L84.1101 49.2416L85.2082 49.4333V55.7111L84.1364 56.0104L84.0654 56.4857H87.5803ZM86.4376 49.0237C86.4761 49.0202 86.5672 49.014 86.7108 49.0053C86.8544 48.9965 87.0199 48.9922 87.2073 48.9922C87.5803 48.9922 87.8999 49.0692 88.1661 49.2232C88.434 49.3773 88.6389 49.5908 88.7808 49.8639C88.9209 50.1369 88.991 50.4485 88.991 50.7986C88.991 51.2222 88.8666 51.5749 88.6179 51.8567C88.371 52.1385 88.068 52.3398 87.709 52.4606H86.4376V49.0237ZM91.8438 48.9974L93.0128 49.2679V55.7111L91.941 56.0104L91.8885 56.4857H98.3981L98.5925 54.4797L98.0592 54.3957L97.4313 55.8713H94.2554V52.7494H96.0128L96.2308 53.8706L96.7772 53.7865L96.9953 51.2922L96.3858 51.3841L96.1152 52.1534H94.2554V49.0998H97.2764L97.5391 50.4783L98.0986 50.5623L98.2956 48.5117H91.9148L91.8438 48.9974ZM102.638 56.6852C103.291 56.6852 103.865 56.6292 104.359 56.5172C104.852 56.4069 105.307 56.2275 105.722 55.9789V53.671L106.518 53.4085L106.594 52.928H103.029L102.953 53.461L104.466 53.7025V55.7216C104.345 55.7916 104.188 55.8538 103.993 55.908C103.799 55.9641 103.589 55.9921 103.363 55.9921C102.708 55.9921 102.141 55.8232 101.663 55.4853C101.184 55.1475 100.817 54.7011 100.565 54.1463C100.313 53.5914 100.187 52.9884 100.187 52.3372C100.187 51.5863 100.302 50.9649 100.531 50.473C100.759 49.9811 101.066 49.6197 101.453 49.3886C101.84 49.1593 102.275 49.0447 102.759 49.0447C103.239 49.0447 103.648 49.1182 103.988 49.2652C104.328 49.4123 104.592 49.5821 104.779 49.7746L105.01 50.9981L105.57 51.0953L105.722 49.0315C105.41 48.8337 105.035 48.6806 104.595 48.5721C104.154 48.4635 103.67 48.4093 103.145 48.4093C102.401 48.4093 101.696 48.5861 101.03 48.9396C100.367 49.295 99.8306 49.8044 99.4226 50.4678C99.0128 51.1294 98.8079 51.9005 98.8079 52.7809C98.8079 53.5284 98.9515 54.1961 99.2387 54.7843C99.5259 55.3707 99.9558 55.8345 100.529 56.1759C101.101 56.5154 101.804 56.6852 102.638 56.6852ZM106.434 56.4857H109.437L109.505 55.9737L108.312 55.6901L108.961 53.7157H111.648L112.347 55.6586L111.249 56.0104L111.173 56.4857H114.475L114.533 55.9737L113.655 55.6901L111.155 48.3568L110.185 48.5563L107.448 55.6586L106.492 56.0104L106.434 56.4857ZM109.205 53.0619L110.398 49.8586L111.462 53.0619H109.205ZM115.116 48.9974L116.285 49.2679V55.7111L115.213 56.0104L115.161 56.4857H118.626L118.689 55.9737L117.528 55.7558V49.2416L118.612 48.9974L118.675 48.5117H115.187L115.116 48.9974ZM118.97 48.9974L120.139 49.3256V55.7111L119.067 56.0104L119.014 56.4857H122.062L122.133 55.9737L120.958 55.7558V50.326L125.211 56.6774L126.191 56.4804V49.2416L127.263 48.9974L127.347 48.5117H124.3L124.224 48.9974L125.411 49.2679V54.7291L121.287 48.5117H119.041L118.97 48.9974ZM133.355 56.6406C133.773 56.6406 134.176 56.5741 134.563 56.441C134.95 56.308 135.294 56.14 135.593 55.9369C135.893 55.7339 136.134 55.5212 136.318 55.2989L136.092 54.8132C135.789 55.0897 135.44 55.319 135.044 55.5011C134.648 55.6831 134.25 55.7741 133.849 55.7741C133.327 55.7741 132.846 55.6385 132.407 55.3672C131.965 55.0959 131.611 54.6959 131.345 54.1673C131.077 53.6404 130.943 53.0076 130.943 52.2689C130.943 51.5968 131.048 51.0113 131.259 50.5124C131.467 50.0118 131.752 49.6276 132.115 49.3597C132.476 49.0937 132.88 48.9607 133.329 48.9607C133.723 48.9607 134.057 49.0202 134.332 49.1392C134.609 49.26 134.826 49.4228 134.984 49.6276L135.254 51.0375L135.816 51.1215L136.016 48.9922C135.725 48.7699 135.379 48.6071 134.978 48.5038C134.576 48.4023 134.147 48.3515 133.694 48.3515C132.774 48.3515 132.005 48.5729 131.385 49.0158C130.765 49.4569 130.308 50.0118 130.013 50.6804C129.719 51.3491 129.572 52.0256 129.572 52.71C129.572 53.531 129.746 54.2382 130.095 54.8315C130.442 55.4249 130.904 55.8748 131.482 56.1811C132.06 56.4874 132.684 56.6406 133.355 56.6406ZM140.385 56.659C141.239 56.659 141.981 56.4708 142.61 56.0945C143.238 55.7181 143.717 55.2149 144.047 54.5847C144.376 53.9546 144.54 53.2658 144.54 52.5184C144.54 51.7622 144.391 51.0647 144.091 50.4257C143.792 49.7868 143.361 49.2784 142.799 48.9003C142.237 48.5222 141.581 48.3331 140.831 48.3331C139.994 48.3331 139.263 48.509 138.638 48.8609C138.014 49.2127 137.534 49.7055 137.198 50.3391C136.864 50.971 136.696 51.6974 136.696 52.5184C136.696 53.2868 136.85 53.9861 137.156 54.6162C137.464 55.2464 137.899 55.7444 138.459 56.1102C139.019 56.4761 139.661 56.659 140.385 56.659ZM140.524 48.9475C141.105 48.9475 141.59 49.1357 141.979 49.512C142.37 49.8884 142.657 50.3715 142.841 50.9614C143.025 51.5495 143.117 52.1665 143.117 52.8124C143.117 53.7314 142.936 54.4893 142.575 55.0862C142.216 55.6814 141.593 55.9789 140.705 55.9789C140.118 55.9789 139.632 55.7986 139.245 55.4381C138.857 55.0775 138.573 54.6057 138.391 54.0228C138.21 53.4417 138.12 52.8186 138.12 52.1534C138.12 50.0162 138.921 48.9475 140.524 48.9475ZM145.103 48.9974L146.269 49.3256V55.7111L145.2 56.0104L145.147 56.4857H148.195L148.265 55.9737L147.091 55.7558V50.326L151.344 56.6774L152.324 56.4804V49.2416L153.396 48.9974L153.48 48.5117H150.433L150.357 48.9974L151.541 49.2679V54.7291L147.417 48.5117H145.174L145.103 48.9974ZM153.504 48.5117L153.556 50.5754L154.139 50.6594L154.478 49.0998H156.37V55.7111L155.287 56.0104L155.243 56.4857H158.7L158.789 55.9737L157.602 55.7558V49.0998H159.559L159.803 50.5807L160.412 50.6778L160.631 48.5117H153.504ZM164.369 56.4857L164.432 55.9527L163.226 55.677V53.0435H164.342L165.362 54.863C165.67 55.4144 166.009 55.845 166.378 56.1549C166.748 56.4647 167.17 56.6196 167.644 56.6196C167.914 56.6196 168.171 56.5767 168.414 56.4909L168.511 56.0551L168.299 55.9921C168.043 55.915 167.823 55.8091 167.639 55.6744C167.455 55.5396 167.282 55.3742 167.119 55.1781C166.956 54.9821 166.723 54.6723 166.42 54.2487L165.264 52.6523V52.647C165.655 52.5087 165.988 52.3206 166.263 52.0825C166.539 51.8427 166.749 51.5793 166.891 51.2922C167.034 51.0069 167.106 50.7233 167.106 50.4415C167.106 49.7308 166.825 49.2223 166.263 48.916C165.701 48.6079 164.909 48.4539 163.888 48.4539C163.459 48.4539 163.011 48.4793 162.546 48.5301C162.08 48.5826 161.552 48.6552 160.961 48.748L160.898 49.2416L161.994 49.4333V55.7111L160.925 56.0104L160.854 56.4857H164.369ZM163.226 49.0237C163.264 49.0202 163.356 49.014 163.499 49.0053C163.643 48.9965 163.808 48.9922 163.996 48.9922C164.367 48.9922 164.687 49.0692 164.954 49.2232C165.222 49.3773 165.426 49.5908 165.567 49.8639C165.708 50.1369 165.779 50.4485 165.779 50.7986C165.779 51.2222 165.655 51.5749 165.406 51.8567C165.159 52.1385 164.856 52.3398 164.495 52.4606H163.226V49.0237ZM172.391 56.659C173.246 56.659 173.988 56.4708 174.616 56.0945C175.245 55.7181 175.724 55.2149 176.053 54.5847C176.383 53.9546 176.547 53.2658 176.547 52.5184C176.547 51.7622 176.397 51.0647 176.098 50.4257C175.799 49.7868 175.368 49.2784 174.806 48.9003C174.243 48.5222 173.587 48.3331 172.838 48.3331C172.001 48.3331 171.27 48.509 170.644 48.8609C170.021 49.2127 169.541 49.7055 169.205 50.3391C168.87 50.971 168.703 51.6974 168.703 52.5184C168.703 53.2868 168.857 53.9861 169.165 54.6162C169.472 55.2464 169.905 55.7444 170.466 56.1102C171.026 56.4761 171.668 56.659 172.391 56.659ZM172.531 48.9475C173.112 48.9475 173.597 49.1357 173.986 49.512C174.376 49.8884 174.664 50.3715 174.848 50.9614C175.031 51.5495 175.123 52.1665 175.123 52.8124C175.123 53.7314 174.944 54.4893 174.585 55.0862C174.224 55.6814 173.6 55.9789 172.712 55.9789C172.125 55.9789 171.638 55.7986 171.251 55.4381C170.864 55.0775 170.581 54.6057 170.4 54.0228C170.218 53.4417 170.127 52.8186 170.127 52.1534C170.127 50.0162 170.928 48.9475 172.531 48.9475ZM177.162 56.4857H183.511L183.748 54.3642L183.204 54.2802L182.363 55.8713H179.529V49.2994L180.624 48.9974L180.687 48.5117H177.162L177.078 48.9974L178.284 49.3256V55.7111L177.22 56.0104L177.162 56.4857ZM189.653 56.659C190.508 56.659 191.249 56.4708 191.878 56.0945C192.507 55.7181 192.986 55.2149 193.315 54.5847C193.644 53.9546 193.809 53.2658 193.809 52.5184C193.809 51.7622 193.659 51.0647 193.36 50.4257C193.06 49.7868 192.629 49.2784 192.067 48.9003C191.505 48.5222 190.85 48.3331 190.102 48.3331C189.263 48.3331 188.532 48.509 187.909 48.8609C187.285 49.2127 186.805 49.7055 186.469 50.3391C186.133 50.971 185.965 51.6974 185.965 52.5184C185.965 53.2868 186.119 53.9861 186.427 54.6162C186.735 55.2464 187.17 55.7444 187.73 56.1102C188.289 56.4761 188.93 56.659 189.653 56.659ZM189.795 48.9475C190.376 48.9475 190.861 49.1357 191.25 49.512C191.639 49.8884 191.925 50.3715 192.109 50.9614C192.293 51.5495 192.385 52.1665 192.385 52.8124C192.385 53.7314 192.206 54.4893 191.847 55.0862C191.488 55.6814 190.863 55.9789 189.974 55.9789C189.389 55.9789 188.903 55.7986 188.516 55.4381C188.129 55.0775 187.844 54.6057 187.662 54.0228C187.48 53.4417 187.389 52.8186 187.389 52.1534C187.389 50.0162 188.191 48.9475 189.795 48.9475ZM194.374 48.9974L195.54 49.2679V55.7111L194.468 56.0104L194.418 56.4857H198.209L198.29 55.9527L196.785 55.7032V52.7809H198.543L198.734 53.9336L199.299 53.8443L199.473 51.3316L198.895 51.4209L198.624 52.1902H196.785V49.0998H199.767L199.985 50.4861L200.55 50.5754L200.812 48.5117H194.445L194.374 48.9974ZM202.465 48.9974L203.35 49.2679L205.614 53.2562V55.7111L204.653 56.0104L204.587 56.4857H207.834L207.897 55.9737L206.852 55.7558V53.0934L209.064 49.2416L209.867 48.9974L209.93 48.5117H207.078L207.012 48.9974L208.186 49.2679L206.492 52.3818L204.716 49.2416L205.73 48.9974L205.806 48.5117H202.549L202.465 48.9974ZM214.438 56.659C215.293 56.659 216.035 56.4708 216.663 56.0945C217.292 55.7181 217.771 55.2149 218.1 54.5847C218.43 53.9546 218.594 53.2658 218.594 52.5184C218.594 51.7622 218.444 51.0647 218.145 50.4257C217.845 49.7868 217.415 49.2784 216.852 48.9003C216.29 48.5222 215.635 48.3331 214.888 48.3331C214.049 48.3331 213.317 48.509 212.694 48.8609C212.071 49.2127 211.591 49.7055 211.254 50.3391C210.918 50.971 210.75 51.6974 210.75 52.5184C210.75 53.2868 210.904 53.9861 211.212 54.6162C211.521 55.2464 211.955 55.7444 212.515 56.1102C213.076 56.4761 213.717 56.659 214.438 56.659ZM214.58 48.9475C215.162 48.9475 215.647 49.1357 216.035 49.512C216.424 49.8884 216.711 50.3715 216.895 50.9614C217.078 51.5495 217.17 52.1665 217.17 52.8124C217.17 53.7314 216.991 54.4893 216.632 55.0862C216.273 55.6814 215.648 55.9789 214.759 55.9789C214.174 55.9789 213.688 55.7986 213.301 55.4381C212.914 55.0775 212.629 54.6057 212.447 54.0228C212.265 53.4417 212.174 52.8186 212.174 52.1534C212.174 50.0162 212.976 48.9475 214.58 48.9475ZM220.16 49.2679V53.4793C220.16 54.6976 220.456 55.5317 221.048 55.9816C221.64 56.4332 222.393 56.659 223.307 56.659C224.407 56.659 225.215 56.3728 225.732 55.8004C226.25 55.228 226.513 54.3563 226.52 53.1853L226.554 49.2416L227.618 48.9974L227.689 48.5117H224.623L224.557 48.9974L225.732 49.2679L225.713 53.3953C225.708 54.2128 225.526 54.8202 225.167 55.2175C224.808 55.6149 224.295 55.8135 223.627 55.8135C222.939 55.8135 222.395 55.6008 221.996 55.1755C221.597 54.7501 221.397 54.0972 221.397 53.2168V49.2416L222.479 48.9974L222.537 48.5117H219.062L218.978 48.9974L220.16 49.2679ZM231.453 56.4857L231.516 55.9527L230.31 55.677V53.0435H231.427L232.446 54.863C232.754 55.4144 233.093 55.845 233.463 56.1549C233.832 56.4647 234.254 56.6196 234.729 56.6196C234.999 56.6196 235.255 56.5767 235.499 56.4909L235.596 56.0551L235.383 55.9921C235.127 55.915 234.908 55.8091 234.724 55.6744C234.54 55.5396 234.366 55.3742 234.203 55.1781C234.041 54.9821 233.808 54.6723 233.505 54.2487L232.349 52.6523V52.647C232.739 52.5087 233.072 52.3206 233.347 52.0825C233.624 51.8427 233.833 51.5793 233.975 51.2922C234.119 51.0069 234.19 50.7233 234.19 50.4415C234.19 49.7308 233.909 49.2223 233.347 48.916C232.785 48.6079 231.993 48.4539 230.972 48.4539C230.543 48.4539 230.096 48.4793 229.63 48.5301C229.164 48.5826 228.636 48.6552 228.046 48.748L227.983 49.2416L229.078 49.4333V55.7111L228.009 56.0104L227.938 56.4857H231.453ZM230.31 49.0237C230.349 49.0202 230.44 49.014 230.584 49.0053C230.727 48.9965 230.893 48.9922 231.08 48.9922C231.451 48.9922 231.771 49.0692 232.039 49.2232C232.307 49.3773 232.511 49.5908 232.651 49.8639C232.793 50.1369 232.864 50.4485 232.864 50.7986C232.864 51.2222 232.739 51.5749 232.491 51.8567C232.244 52.1385 231.94 52.3398 231.579 52.4606H230.31V49.0237ZM237.671 48.9974L238.84 49.2679V55.7111L237.768 56.0104L237.716 56.4857H241.506L241.59 55.9527L240.083 55.7032V52.7809H241.84L242.032 53.9336L242.597 53.8443L242.77 51.3316L242.195 51.4209L241.924 52.1902H240.083V49.0998H243.067L243.285 50.4861L243.847 50.5754L244.11 48.5117H237.742L237.671 48.9974ZM244.265 48.9974L245.431 49.2679V55.7111L244.359 56.0104L244.309 56.4857H247.772L247.837 55.9737L246.676 55.7558V49.2416L247.759 48.9974L247.824 48.5117H244.336L244.265 48.9974ZM248.118 48.9974L249.285 49.3256V55.7111L248.213 56.0104L248.163 56.4857H251.21L251.279 55.9737L250.107 55.7558V50.326L254.357 56.6774L255.34 56.4804V49.2416L256.412 48.9974L256.493 48.5117H253.449L253.37 48.9974L254.557 49.2679V54.7291L250.433 48.5117H248.189L248.118 48.9974ZM256.204 56.4857H259.207L259.278 55.9737L258.085 55.6901L258.731 53.7157H261.419L262.117 55.6586L261.022 56.0104L260.943 56.4857H264.248L264.306 55.9737L263.426 55.6901L260.925 48.3568L259.955 48.5563L257.218 55.6586L256.262 56.0104L256.204 56.4857ZM258.976 53.0619L260.168 49.8586L261.232 53.0619H258.976ZM264.889 48.9974L266.055 49.3256V55.7111L264.983 56.0104L264.934 56.4857H267.978L268.049 55.9737L266.875 55.7558V50.326L271.128 56.6774L272.11 56.4804V49.2416L273.18 48.9974L273.264 48.5117H270.216L270.14 48.9974L271.328 49.2679V54.7291L267.203 48.5117H264.96L264.889 48.9974ZM277.317 56.6406C277.736 56.6406 278.138 56.5741 278.525 56.441C278.912 56.308 279.256 56.14 279.555 55.9369C279.855 55.7339 280.096 55.5212 280.28 55.2989L280.054 54.8132C279.751 55.0897 279.402 55.319 279.006 55.5011C278.61 55.6831 278.212 55.7741 277.811 55.7741C277.289 55.7741 276.808 55.6385 276.369 55.3672C275.927 55.0959 275.573 54.6959 275.305 54.1673C275.039 53.6404 274.905 53.0076 274.905 52.2689C274.905 51.5968 275.011 51.0113 275.221 50.5124C275.429 50.0118 275.714 49.6276 276.074 49.3597C276.437 49.0937 276.842 48.9607 277.291 48.9607C277.685 48.9607 278.019 49.0202 278.294 49.1392C278.571 49.26 278.788 49.4228 278.946 49.6276L279.216 51.0375L279.778 51.1215L279.978 48.9922C279.687 48.7699 279.341 48.6071 278.94 48.5038C278.538 48.4023 278.109 48.3515 277.656 48.3515C276.736 48.3515 275.967 48.5729 275.347 49.0158C274.727 49.4569 274.27 50.0118 273.976 50.6804C273.68 51.3491 273.532 52.0256 273.532 52.71C273.532 53.531 273.706 54.2382 274.054 54.8315C274.403 55.4249 274.866 55.8748 275.444 56.1811C276.022 56.4874 276.646 56.6406 277.317 56.6406ZM280.588 48.9974L281.754 49.2679V55.7111L280.682 56.0104L280.632 56.4857H287.142L287.334 54.4797L286.8 54.3957L286.172 55.8713H282.999V52.7494H284.757L284.975 53.8706L285.518 53.7865L285.736 51.2922L285.127 51.3841L284.859 52.1534H282.999V49.0998H286.02L286.283 50.4783L286.84 50.5623L287.039 48.5117H280.658L280.588 48.9974ZM289.737 56.6406C290.229 56.6406 290.694 56.5391 291.132 56.336C291.572 56.133 291.925 55.845 292.191 55.4722C292.459 55.1011 292.593 54.6758 292.593 54.1961C292.593 53.8548 292.505 53.5581 292.33 53.3061C292.155 53.054 291.941 52.8413 291.689 52.668C291.435 52.4947 291.094 52.2952 290.667 52.0694C290.257 51.8471 289.933 51.6572 289.695 51.4996C289.459 51.3403 289.258 51.1452 289.094 50.9141C288.929 50.6848 288.847 50.4161 288.847 50.108C288.847 49.7055 288.956 49.4018 289.175 49.197C289.392 48.9922 289.672 48.8898 290.013 48.8898C290.172 48.8898 290.329 48.923 290.483 48.9895C290.636 49.0561 290.767 49.1374 290.877 49.2337C290.986 49.3282 291.061 49.4166 291.103 49.4989L291.263 50.7224L291.899 50.7986C291.911 50.6148 291.935 50.3181 291.97 49.9085C292.003 49.4989 292.027 49.1935 292.041 48.9922C291.528 48.5651 290.925 48.3515 290.231 48.3515C289.8 48.3515 289.394 48.4408 289.012 48.6193C288.632 48.7996 288.325 49.0604 288.09 49.4018C287.855 49.7448 287.738 50.1492 287.738 50.6148C287.738 51.0156 287.835 51.364 288.03 51.6598C288.224 51.9539 288.459 52.1963 288.734 52.3871C289.01 52.5761 289.373 52.7906 289.821 53.0304C290.186 53.2264 290.471 53.3936 290.678 53.5319C290.884 53.6684 291.059 53.8294 291.2 54.015C291.342 54.2005 291.413 54.4106 291.413 54.6451C291.413 54.9444 291.337 55.1948 291.185 55.396C291.032 55.5973 290.84 55.747 290.607 55.845C290.374 55.9431 290.136 55.9921 289.892 55.9921C289.61 55.9921 289.35 55.9299 289.112 55.8056C288.876 55.6814 288.695 55.53 288.571 55.3514L288.321 54.1463L287.667 54.057L287.583 55.8949C287.802 56.1085 288.104 56.2861 288.489 56.4279C288.876 56.5697 289.292 56.6406 289.737 56.6406Z" fill="#ADBFB8"/>
</g>
</g>
</g>
</g>
<g clip-path="url(#clip9_13_243)">
<g clip-path="url(#clip10_13_243)">
<path d="M75.5012 3.58374H3.64453V75.404H75.5012V3.58374Z" fill="#096A2E"/>
<path opacity="0.5" d="M79.0868 0H7.2301V71.8203H79.0868V0Z" fill="#096A2E"/>
<g clip-path="url(#clip11_13_243)">
<g clip-path="url(#clip12_13_243)">
<path d="M43.768 38.2219H40.8455V28.6034H48.8253C49.5277 28.6034 50.0978 28.0336 50.0978 27.3315C50.0978 26.6294 49.5277 26.0595 48.8253 26.0595H40.8455V21.8418C40.8455 21.1397 40.2754 20.5698 39.5729 20.5698C38.8704 20.5698 38.3003 21.1397 38.3003 21.8418V26.0595H35.3778C31.3208 26.0595 28.021 29.3583 28.021 33.4126C28.021 37.4676 31.3208 40.7657 35.3778 40.7657H38.3003V50.3848H29.2936C28.5911 50.3848 28.021 50.9546 28.021 51.6568C28.021 52.3589 28.5911 52.9287 29.2936 52.9287H38.3003V57.1446C38.3003 57.8467 38.8704 58.4165 39.5729 58.4165C40.2754 58.4165 40.8455 57.8467 40.8455 57.1446V52.9287H43.768C47.825 52.9287 51.1248 49.6299 51.1248 45.5756C51.1248 41.5213 47.825 38.2219 43.768 38.2219ZM35.3778 38.2219C32.7245 38.2219 30.5662 36.0646 30.5662 33.4133C30.5662 30.7613 32.7251 28.6041 35.3778 28.6041H38.3003V38.2219H35.3778ZM43.768 50.3848H40.8455V40.7657H43.768C46.4213 40.7657 48.5796 42.9236 48.5796 45.575C48.5796 48.2263 46.4213 50.3848 43.768 50.3848Z" fill="white"/>
<path d="M39.5729 10.2391C23.4339 10.2391 10.3033 23.363 10.3033 39.4938C10.3033 55.6246 23.4339 68.7485 39.5729 68.7485C55.7118 68.7485 68.8424 55.6246 68.8424 39.4938C68.8424 23.363 55.7118 10.2391 39.5729 10.2391ZM39.5729 66.2047C24.8369 66.2047 12.8485 54.2223 12.8485 39.4938C12.8485 24.7654 24.8369 12.783 39.5729 12.783C54.3088 12.783 66.2972 24.7654 66.2972 39.4938C66.2972 54.2223 54.3088 66.2047 39.5729 66.2047Z" fill="white"/>
</g>
</g>
</g>
</g>
</g>
</g>
</g>
<defs>
<clipPath id="clip0_13_243">
<rect width="304" height="79" fill="white" transform="translate(-0.184204 -0.00610352)"/>
</clipPath>
<clipPath id="clip1_13_243">
<rect width="303.514" height="78.9877" fill="white" transform="translate(0.05896)"/>
</clipPath>
<clipPath id="clip2_13_243">
<rect width="303.514" height="78.9877" fill="white" transform="translate(0.05896)"/>
</clipPath>
<clipPath id="clip3_13_243">
<rect width="219.512" height="34.3829" fill="white" transform="translate(84.0608 22.3024)"/>
</clipPath>
<clipPath id="clip4_13_243">
<rect width="219.512" height="34.3829" fill="white" transform="translate(84.0608 22.3024)"/>
</clipPath>
<clipPath id="clip5_13_243">
<rect width="219.512" height="21.0592" fill="white" transform="translate(84.0608 22.3024)"/>
</clipPath>
<clipPath id="clip6_13_243">
<rect width="219.512" height="21.0592" fill="white" transform="translate(84.0608 22.3024)"/>
</clipPath>
<clipPath id="clip7_13_243">
<rect width="208.536" height="8.3521" fill="white" transform="translate(84.0608 48.3331)"/>
</clipPath>
<clipPath id="clip8_13_243">
<rect width="208.536" height="8.3521" fill="white" transform="translate(84.0608 48.3331)"/>
</clipPath>
<clipPath id="clip9_13_243">
<rect width="79.0277" height="78.9877" fill="white" transform="translate(0.05896)"/>
</clipPath>
<clipPath id="clip10_13_243">
<rect width="79.0277" height="78.9877" fill="white" transform="translate(0.05896)"/>
</clipPath>
<clipPath id="clip11_13_243">
<rect width="58.539" height="58.5094" fill="white" transform="translate(10.3033 10.2391)"/>
</clipPath>
<clipPath id="clip12_13_243">
<rect width="58.539" height="58.5094" fill="white" transform="translate(10.3033 10.2391)"/>
</clipPath>
</defs>
</svg>
